<?xml version="1.0" standalone="no"?>
<!DOCTYPE svg PUBLIC "-//W3C//DTD SVG 20010904//EN"
 "http://www.w3.org/TR/2001/REC-SVG-20010904/DTD/svg10.dtd">
<svg version="1.0" xmlns="http://www.w3.org/2000/svg"
 width="914.000000pt" height="914.000000pt" viewBox="0 0 914.000000 914.000000"
 preserveAspectRatio="xMidYMid meet">
<metadata>
Created by potrace 1.11, written by Peter Selinger 2001-2013
</metadata>
<g transform="translate(0.000000,914.000000) scale(0.100000,-0.100000)"
fill="#000000" stroke="none">
<path d="M5578 9136 c-1 -2 -39 -7 -83 -10 -87 -7 -115 -11 -217 -27 -108 -17
-183 -33 -288 -61 -41 -11 -82 -21 -90 -23 -59 -13 -261 -83 -385 -133 -192
-77 -500 -251 -634 -357 -9 -7 -63 -51 -121 -97 -111 -88 -360 -329 -426 -413
-21 -27 -41 -52 -44 -55 -32 -31 -179 -235 -240 -335 -190 -308 -353 -712
-415 -1026 -11 -56 -36 -202 -41 -241 -3 -24 -7 -54 -10 -68 -21 -132 -21
-575 1 -712 2 -13 6 -45 9 -73 10 -84 29 -186 55 -290 13 -50 13 -65 2 -65
-11 0 -156 -67 -366 -171 -175 -86 -238 -120 -243 -131 -2 -5 -8 -8 -13 -8
-16 0 -157 -98 -254 -175 -316 -253 -543 -587 -715 -1049 -46 -125 -116 -342
-126 -390 -2 -10 -10 -42 -18 -70 -14 -50 -40 -162 -70 -301 -18 -85 -44 -146
-87 -205 -53 -73 -74 -88 -292 -214 -265 -152 -272 -158 -284 -231 -8 -51 -5
-59 199 -495 22 -47 55 -116 73 -155 18 -38 49 -104 68 -146 20 -42 68 -146
107 -230 110 -235 130 -277 173 -369 22 -47 52 -112 67 -145 15 -33 45 -98 67
-145 22 -47 48 -103 58 -125 10 -22 47 -100 82 -173 34 -73 63 -137 63 -141 0
-10 50 -56 77 -70 30 -15 89 -14 121 3 44 23 67 56 102 146 49 126 144 309
220 424 267 405 628 662 1150 820 94 28 280 73 338 82 20 2 48 7 62 10 55 10
67 12 110 18 53 7 76 11 190 32 47 9 96 18 110 20 34 7 244 52 300 65 25 6 56
13 69 15 27 6 392 90 711 164 118 28 224 52 235 54 11 3 88 21 170 41 83 20
161 39 175 41 22 5 203 47 545 129 55 13 170 40 255 59 85 20 223 52 305 72
83 19 161 38 175 40 14 3 50 11 80 19 47 12 300 70 353 81 10 2 26 5 35 8 9 3
28 7 42 10 14 2 57 12 95 21 39 9 79 19 90 21 11 2 79 17 150 34 72 16 225 50
340 75 116 25 237 52 270 61 218 58 361 237 370 463 5 137 -37 264 -122 368
-70 85 -214 163 -317 172 -5 1 47 59 116 129 235 243 413 492 563 786 72 142
175 395 190 466 2 8 8 28 14 43 10 26 58 206 67 252 2 11 8 43 14 70 21 108
34 198 47 340 15 157 8 574 -12 685 -2 14 -7 45 -10 70 -20 162 -80 400 -147
590 -107 302 -284 626 -475 870 -191 245 -372 424 -603 599 -103 78 -150 110
-270 186 -92 59 -396 215 -417 215 -3 0 -19 7 -36 15 -148 68 -450 158 -652
194 -33 6 -69 13 -80 15 -11 2 -49 7 -85 11 -36 4 -78 9 -95 12 -34 5 -491 13
-497 9z"/>
</g>
</svg>
